<?xml version="1.0" encoding="utf-8"?>
<!-- Generator: Adobe Illustrator 24.0.0, SVG Export Plug-In . SVG Version: 6.00 Build 0)  -->
<svg version="1.1" id="Layer_1" xmlns="http://www.w3.org/2000/svg" xmlns:xlink="http://www.w3.org/1999/xlink" x="0px" y="0px"
	 viewBox="0 0 30 30" style="enable-background:new 0 0 30 30;" xml:space="preserve">
<g>
	<path d="M17.6,12.2h8.3c1.3,0,2.3,1,2.3,2.3v0.1c0,1.3-1,2.3-2.3,2.3h-8.3v9.8c0,1.3-1,2.3-2.3,2.3h-0.6c-1.3,0-2.3-1-2.3-2.3v-9.8
		H4.1c-1.3,0-2.3-1-2.3-2.3v-0.1c0-1.3,1-2.3,2.3-2.3h8.3V3.3c0-1.3,1-2.3,2.3-2.3h0.6c1.3,0,2.3,1,2.3,2.3L17.6,12.2z"/>
</g>
</svg>
