<?xml version="1.0" encoding="utf-8"?>
<!-- Generator: Adobe Illustrator 24.0.0, SVG Export Plug-In . SVG Version: 6.00 Build 0)  -->
<svg version="1.1" id="Layer_1" xmlns="http://www.w3.org/2000/svg" xmlns:xlink="http://www.w3.org/1999/xlink" x="0px" y="0px"
	 viewBox="0 0 40 40" style="enable-background:new 0 0 40 40;" xml:space="preserve">
<style type="text/css">
	.st0{fill:#B3A369;}
</style>
<path class="st0" d="M36.8,1.4H3.3c-1.2,0-2.2,1-2.2,2.2v33.5c0,1.2,1,2.2,2.2,2.2h33.5c1.2,0,2.2-1,2.2-2.2V3.6
	C39,2.4,38,1.4,36.8,1.4z M38,37.1c0,0.7-0.5,1.2-1.2,1.2H3.3c-0.7,0-1.2-0.5-1.2-1.2v-4.4H38V37.1z M38,31.7H2.1V27H38V31.7z
	 M38,26H2.1v-4.7H38V26z M38,20.3H2.1v-4.7H38V20.3z M38,14.6H2.1V9.9H38V14.6z"/>
</svg>
