<?xml version="1.0" encoding="utf-8"?>
<!-- Generator: Adobe Illustrator 24.0.0, SVG Export Plug-In . SVG Version: 6.00 Build 0)  -->
<svg version="1.1" id="Layer_1" xmlns="http://www.w3.org/2000/svg" xmlns:xlink="http://www.w3.org/1999/xlink" x="0px" y="0px"
	 viewBox="0 0 40 40" style="enable-background:new 0 0 40 40;" xml:space="preserve">
<style type="text/css">
	.st0{fill:#B3A369;}
</style>
<g>
	<g>
		<path class="st0" d="M31.5,3H9C8.7,3,8.4,3.3,8.4,3.7v2.7C8.4,6.7,8.7,7,9,7h22.4c0.4,0,0.7-0.3,0.7-0.7V3.7
			C32.1,3.3,31.8,3,31.5,3z M31.1,5.8C31.1,5.9,31,6,30.9,6H9.6C9.5,6,9.4,5.9,9.4,5.8V4.2C9.4,4.1,9.5,4,9.6,4h21.3
			c0.1,0,0.2,0.1,0.2,0.2V5.8z"/>
	</g>
	<path class="st0" d="M20.3,8c-8.3,0-15,6.7-15,15s6.7,15,15,15s15-6.7,15-15S28.5,8,20.3,8z M20.3,37c-7.7,0-14-6.3-14-14
		s6.3-14,14-14s14,6.3,14,14S28,37,20.3,37z"/>
	<path class="st0" d="M20.3,10.8C13.5,10.8,8,16.3,8,23s5.5,12.3,12.3,12.3S32.5,29.8,32.5,23S27,10.8,20.3,10.8z M20.3,34.8
		c-6.5,0-11.8-5.3-11.8-11.8s5.3-11.8,11.8-11.8S32,16.5,32,23S26.7,34.8,20.3,34.8z"/>
	<path class="st0" d="M26.5,23.5c0,0.3-0.2,0.5-0.5,0.5h-5.8c-0.3,0-0.5-0.2-0.5-0.4c0,0,0-0.1,0-0.1v-10c0-0.3,0.2-0.5,0.5-0.5
		s0.5,0.2,0.5,0.5V23H26C26.3,23,26.5,23.2,26.5,23.5z"/>
</g>
</svg>
