<?xml version="1.0" encoding="utf-8"?>
<!-- Generator: Adobe Illustrator 24.0.0, SVG Export Plug-In . SVG Version: 6.00 Build 0)  -->
<svg version="1.1" id="Layer_1" xmlns="http://www.w3.org/2000/svg" xmlns:xlink="http://www.w3.org/1999/xlink" x="0px" y="0px"
	 viewBox="0 0 30 30" style="enable-background:new 0 0 30 30;" xml:space="preserve">
<style type="text/css">
	.st0{fill:#B3A369;stroke:#B3A369;stroke-miterlimit:10;}
</style>
<path class="st0" d="M27,26H3c-0.3,0-0.5-0.2-0.5-0.5S2.7,25,3,25h24c0.3,0,0.5,0.2,0.5,0.5S27.3,26,27,26z"/>
<path class="st0" d="M15,22.9c-0.3,0-0.5-0.1-0.8-0.3l-8.4-8.4c-0.2-0.2-0.2-0.5,0-0.7s0.5-0.2,0.7,0l8.4,8.4l8.5-8.4
	c0.2-0.2,0.5-0.2,0.7,0s0.2,0.5,0,0.7l-8.4,8.4C15.5,22.8,15.3,22.9,15,22.9z"/>
<path class="st0" d="M15,18c-0.3,0-0.5-0.2-0.5-0.5v-14C14.5,3.2,14.7,3,15,3s0.5,0.2,0.5,0.5v14C15.5,17.8,15.3,18,15,18z"/>
</svg>
