<?xml version="1.0" encoding="utf-8"?>
<!-- Generator: Adobe Illustrator 24.0.0, SVG Export Plug-In . SVG Version: 6.00 Build 0)  -->
<svg version="1.1" id="Layer_1" xmlns="http://www.w3.org/2000/svg" xmlns:xlink="http://www.w3.org/1999/xlink" x="0px" y="0px"
	 viewBox="0 0 30 30" style="enable-background:new 0 0 30 30;" xml:space="preserve">
<path d="M18.41,4.31H2.85c-0.33,0-0.61,0.28-0.61,0.62v15.55c0,0.34,0.28,0.61,0.61,0.61h6.91v-1H3.24V5.31h14.78V8.8h1V4.93
	C19.02,4.59,18.74,4.31,18.41,4.31z"/>
<path d="M26.3,9.2H10.74c-0.34,0-0.61,0.28-0.61,0.61v15.56c0,0.34,0.27,0.61,0.61,0.61H26.3c0.33,0,0.61-0.27,0.61-0.61V9.81
	C26.91,9.48,26.63,9.2,26.3,9.2z M25.91,24.98H11.13V10.2h14.78V24.98z"/>
</svg>
