<?xml version="1.0" encoding="utf-8"?>
<!-- Generator: Adobe Illustrator 24.0.0, SVG Export Plug-In . SVG Version: 6.00 Build 0)  -->
<svg version="1.1" id="Layer_1" xmlns="http://www.w3.org/2000/svg" xmlns:xlink="http://www.w3.org/1999/xlink" x="0px" y="0px"
	 viewBox="0 0 40 40" style="enable-background:new 0 0 40 40;" xml:space="preserve">
<style type="text/css">
	.st0{stroke:#000000;stroke-miterlimit:10;}
</style>
<path class="st0" d="M37.5,10l-6.9-6.9c-0.5-0.5-1.2-0.8-2-0.8H4.5C3,2.3,1.7,3.5,1.7,5.1v31c0,1.5,1.3,2.8,2.8,2.8h31
	c1.5,0,2.8-1.3,2.8-2.8V11.9C38.3,11.2,38,10.5,37.5,10z M13.8,3.3h13.8v6.9c0,0.8-0.7,1.5-1.5,1.5H13.8V3.3z M6.8,3.3h6v8.4H8.3
	c-0.8,0-1.5-0.7-1.5-1.5V3.3z M6.5,37.8V25.3c0-1.7,0.9-3,2.1-3h22.9c1.1,0,2.1,1.3,2.1,3v12.5H6.5z M37.3,36c0,1-0.8,1.8-1.8,1.8
	h-1V25.3c0-2.2-1.3-4-3.1-4H8.6c-1.7,0-3.1,1.8-3.1,4v12.5h-1c-1,0-1.8-0.8-1.8-1.8v-31c0-1,0.8-1.8,1.8-1.8h1.3v6.9
	c0,1.4,1.1,2.5,2.5,2.5h17.8c1.4,0,2.5-1.1,2.5-2.5V3.3h0c0.5,0,0.9,0.2,1.3,0.5l6.9,6.9c0.3,0.3,0.5,0.8,0.5,1.3V36z"/>
<path d="M30.5,26.1h-21c-0.3,0-0.5-0.2-0.5-0.5s0.2-0.5,0.5-0.5h21c0.3,0,0.5,0.2,0.5,0.5S30.8,26.1,30.5,26.1z"/>
<path d="M30.5,30.1h-21c-0.3,0-0.5-0.2-0.5-0.5s0.2-0.5,0.5-0.5h21c0.3,0,0.5,0.2,0.5,0.5S30.8,30.1,30.5,30.1z"/>
<path d="M30.5,34.1h-21c-0.3,0-0.5-0.2-0.5-0.5s0.2-0.5,0.5-0.5h21c0.3,0,0.5,0.2,0.5,0.5S30.8,34.1,30.5,34.1z"/>
</svg>
